<svg xmlns="http://www.w3.org/2000/svg" xmlns:xlink="http://www.w3.org/1999/xlink" width="500" zoomAndPan="magnify" viewBox="0 0 375 374.999991" height="500" preserveAspectRatio="xMidYMid meet" version="1.0"><defs><g/></defs><rect x="-37.5" width="450" fill="#ffffff" y="-37.499999" height="449.999989" fill-opacity="1"/><rect x="-37.5" width="450" fill="#ffffff" y="-37.499999" height="449.999989" fill-opacity="1"/><g fill="#300064" fill-opacity="1"><g transform="translate(100.366093, 178.999997)"><g><path d="M 17.921875 -4.265625 L 8.578125 -4.265625 L 6.125 0 L -2.59375 0 L 13.015625 -24.5 L 21.140625 -24.5 L 26.953125 0 L 18.71875 0 Z M 16.765625 -10.21875 L 15.578125 -16.484375 L 11.96875 -10.21875 Z M 16.765625 -10.21875 "/></g></g></g><g fill="#300064" fill-opacity="1"><g transform="translate(133.434727, 178.999997)"><g><path d="M 25.03125 -19.421875 L 11.4375 -6.40625 L 23 -6.40625 L 21.703125 0 L -0.8125 0 L 0.203125 -5.078125 L 13.796875 -18.09375 L 3.15625 -18.09375 L 4.4375 -24.5 L 26.046875 -24.5 Z M 25.03125 -19.421875 "/></g></g></g><g fill="#300064" fill-opacity="1"><g transform="translate(162.339302, 178.999997)"><g><path d="M 11.828125 -18.265625 L 11.265625 -15.40625 L 21.625 -15.40625 L 20.4375 -9.453125 L 10.046875 -9.453125 L 9.421875 -6.234375 L 21.703125 -6.234375 L 20.4375 0 L 0.0625 0 L 4.96875 -24.5 L 24.890625 -24.5 L 23.625 -18.265625 Z M 11.828125 -18.265625 "/></g></g></g><g fill="#300064" fill-opacity="1"><g transform="translate(190.75399, 178.999997)"><g><path d="M 9 -18.09375 L 1.8125 -18.09375 L 3.109375 -24.5 L 25.71875 -24.5 L 24.4375 -18.09375 L 17.25 -18.09375 L 13.65625 0 L 5.390625 0 Z M 9 -18.09375 "/></g></g></g><g fill="#300064" fill-opacity="1"><g transform="translate(218.503822, 178.999997)"><g><path d="M 13.859375 0.5625 C 11.359375 0.5625 9.171875 0.101562 7.296875 -0.8125 C 5.421875 -1.738281 3.972656 -3.03125 2.953125 -4.6875 C 1.941406 -6.34375 1.4375 -8.242188 1.4375 -10.390625 C 1.4375 -13.242188 2.09375 -15.78125 3.40625 -18 C 4.726562 -20.226562 6.5625 -21.960938 8.90625 -23.203125 C 11.25 -24.441406 13.90625 -25.0625 16.875 -25.0625 C 19.363281 -25.0625 21.546875 -24.597656 23.421875 -23.671875 C 25.304688 -22.753906 26.753906 -21.46875 27.765625 -19.8125 C 28.785156 -18.15625 29.296875 -16.253906 29.296875 -14.109375 C 29.296875 -11.253906 28.632812 -8.710938 27.3125 -6.484375 C 26 -4.265625 24.171875 -2.535156 21.828125 -1.296875 C 19.484375 -0.0546875 16.828125 0.5625 13.859375 0.5625 Z M 14.5625 -6.125 C 15.863281 -6.125 17 -6.460938 17.96875 -7.140625 C 18.9375 -7.816406 19.675781 -8.722656 20.1875 -9.859375 C 20.707031 -11.003906 20.96875 -12.253906 20.96875 -13.609375 C 20.96875 -15.054688 20.539062 -16.210938 19.6875 -17.078125 C 18.832031 -17.941406 17.660156 -18.375 16.171875 -18.375 C 14.859375 -18.375 13.71875 -18.035156 12.75 -17.359375 C 11.789062 -16.679688 11.050781 -15.769531 10.53125 -14.625 C 10.019531 -13.488281 9.765625 -12.242188 9.765625 -10.890625 C 9.765625 -9.441406 10.1875 -8.285156 11.03125 -7.421875 C 11.882812 -6.554688 13.0625 -6.125 14.5625 -6.125 Z M 14.5625 -6.125 "/></g></g></g><g fill="#300064" fill-opacity="1"><g transform="translate(253.042123, 178.999997)"><g><path d="M 4.96875 -24.5 L 13.234375 -24.5 L 9.625 -6.40625 L 20.6875 -6.40625 L 19.390625 0 L 0.0625 0 Z M 4.96875 -24.5 "/></g></g></g></svg>